<svg xmlns="http://www.w3.org/2000/svg" xmlns:xlink="http://www.w3.org/1999/xlink" width="1080" zoomAndPan="magnify" viewBox="0 0 810 809.999993" height="1080" preserveAspectRatio="xMidYMid meet" version="1.2"><defs><clipPath id="c34ede65a8"><path d="M 37 287.308594 L 288.890625 287.308594 L 288.890625 462.808594 L 37 462.808594 Z M 37 287.308594 "/></clipPath></defs><g id="e0d6db9102"><rect x="0" width="810" y="0" height="809.999993" style="fill:#ffffff;fill-opacity:1;stroke:none;"/><rect x="0" width="810" y="0" height="809.999993" style="fill:#ffffff;fill-opacity:1;stroke:none;"/><g clip-rule="nonzero" clip-path="url(#c34ede65a8)"><path style=" stroke:none;fill-rule:evenodd;fill:#00f2b0;fill-opacity:1;" d="M 287.65625 356 L 288.464844 356 L 288.464844 356.808594 C 287.925781 357.34375 287.65625 357.882812 287.65625 358.421875 C 287.117188 358.421875 286.039062 358.691406 284.425781 359.230469 L 281.191406 359.230469 C 281.191406 358.691406 278.5 356.808594 273.109375 353.574219 C 267.722656 349.804688 262.875 346.839844 258.566406 344.683594 C 253.714844 343.070312 249.40625 341.183594 245.636719 339.027344 C 241.863281 336.875 237.824219 334.179688 233.515625 330.949219 C 228.664062 327.714844 224.625 325.558594 221.390625 324.484375 C 217.621094 323.40625 214.65625 321.25 212.503906 318.019531 L 209.269531 313.167969 L 209.269531 312.359375 L 208.460938 312.359375 L 208.460938 311.554688 L 207.65625 311.554688 L 207.65625 310.746094 L 206.847656 310.746094 L 206.847656 309.9375 L 205.230469 309.9375 L 205.230469 309.128906 L 204.421875 309.128906 L 204.421875 308.320312 L 203.613281 308.320312 L 204.421875 316.402344 C 204.960938 321.25 205.769531 324.214844 206.847656 325.289062 C 208.460938 325.828125 210.347656 326.636719 212.503906 327.714844 C 215.195312 328.792969 217.082031 330.679688 218.160156 333.371094 C 219.777344 336.066406 221.390625 337.683594 223.007812 338.21875 C 224.085938 338.757812 224.894531 339.027344 225.433594 339.027344 L 226.242188 339.027344 L 227.050781 339.835938 L 227.855469 340.644531 L 228.664062 340.644531 L 228.664062 341.453125 L 229.472656 341.453125 L 229.472656 342.261719 L 227.855469 342.261719 L 224.625 343.070312 C 222.46875 343.609375 220.585938 343.878906 218.96875 343.878906 C 217.351562 343.878906 214.386719 344.148438 210.078125 344.683594 L 204.421875 345.492188 L 203.613281 344.683594 L 202.804688 343.878906 L 201.996094 343.878906 L 201.996094 342.261719 C 201.996094 341.183594 202.804688 340.105469 204.421875 339.027344 L 206.847656 337.414062 L 206.847656 335.796875 L 206.039062 335.796875 L 205.230469 334.988281 C 204.691406 334.449219 203.074219 333.640625 200.382812 332.5625 C 197.6875 331.484375 195.800781 328.523438 194.722656 323.675781 L 192.300781 317.210938 L 192.300781 316.402344 L 191.492188 316.402344 L 190.683594 315.59375 L 189.066406 315.59375 L 189.066406 317.210938 L 188.257812 318.019531 L 187.453125 319.632812 L 183.410156 334.179688 C 180.71875 344.417969 177.214844 352.496094 172.90625 358.421875 C 169.132812 363.808594 165.363281 369.46875 161.59375 375.394531 C 158.359375 380.78125 156.203125 384.820312 155.128906 387.515625 C 154.050781 389.671875 153.511719 391.554688 153.511719 393.171875 L 153.511719 395.597656 L 152.703125 396.402344 L 151.894531 397.210938 L 150.277344 397.210938 L 150.277344 393.171875 C 150.277344 390.476562 151.355469 386.4375 153.511719 381.050781 C 155.667969 375.125 158.628906 369.199219 162.398438 363.273438 C 166.171875 357.34375 169.132812 351.417969 171.289062 345.492188 L 174.523438 335.796875 L 174.523438 330.949219 L 169.671875 330.949219 L 168.863281 331.753906 L 168.058594 332.5625 L 167.25 332.5625 L 167.25 333.371094 L 166.441406 333.371094 L 164.015625 339.027344 C 162.398438 342.800781 159.4375 350.34375 155.128906 361.65625 C 150.816406 372.96875 145.699219 384.011719 139.773438 394.789062 C 133.847656 405.023438 127.652344 413.914062 121.1875 421.457031 C 115.261719 427.921875 109.875 432.769531 105.023438 436 C 100.175781 439.234375 94.789062 441.925781 88.863281 444.082031 C 83.476562 446.238281 80.511719 447.585938 79.972656 448.125 L 79.164062 448.929688 L 77.550781 448.929688 L 77.550781 449.738281 L 76.742188 449.738281 L 76.742188 450.546875 L 74.316406 450.546875 L 74.316406 451.355469 L 74.316406 448.929688 L 75.125 448.929688 L 75.125 448.125 L 75.933594 448.125 L 75.933594 447.316406 L 76.742188 447.316406 L 76.742188 446.507812 L 77.550781 446.507812 L 77.550781 445.699219 L 78.355469 445.699219 L 78.355469 444.890625 C 78.894531 444.890625 84.28125 441.390625 94.519531 434.386719 C 105.292969 426.84375 112.027344 421.726562 114.722656 419.03125 C 117.953125 416.335938 121.726562 411.21875 126.035156 403.675781 C 130.34375 396.136719 134.117188 389.132812 137.347656 382.667969 C 139.503906 376.742188 138.695312 371.621094 134.925781 367.3125 C 130.613281 362.464844 127.113281 360.039062 124.417969 360.039062 C 122.265625 360.039062 119.839844 360.578125 117.144531 361.65625 C 114.453125 362.734375 112.296875 364.886719 110.679688 368.121094 C 109.066406 371.351562 106.101562 379.972656 101.792969 393.980469 L 95.328125 414.183594 L 94.519531 414.992188 L 93.710938 416.605469 L 93.710938 419.03125 L 92.902344 419.03125 L 92.902344 419.839844 L 92.09375 419.839844 L 92.09375 416.605469 L 92.902344 414.183594 L 93.710938 411.757812 L 93.710938 409.332031 L 92.902344 409.332031 L 92.902344 410.140625 L 92.09375 410.140625 L 92.09375 410.949219 L 91.285156 411.757812 L 90.480469 412.566406 L 90.480469 413.375 L 89.671875 413.375 L 89.671875 414.183594 L 88.863281 414.183594 L 85.628906 419.03125 C 82.9375 422.800781 81.589844 424.6875 81.589844 424.6875 L 80.78125 424.6875 L 80.78125 425.496094 L 79.972656 425.496094 L 79.972656 426.304688 L 76.742188 426.304688 L 75.125 427.921875 L 73.507812 427.921875 L 73.507812 427.113281 L 74.316406 427.113281 L 74.316406 425.496094 L 75.125 425.496094 L 75.125 424.6875 L 75.933594 424.6875 L 75.933594 423.070312 L 76.742188 422.261719 C 77.28125 421.726562 79.972656 416.875 84.820312 407.71875 C 89.671875 398.558594 92.632812 392.363281 93.710938 389.132812 L 95.328125 385.089844 L 95.328125 381.859375 L 94.519531 381.859375 L 94.519531 381.050781 L 92.902344 381.050781 L 92.902344 381.859375 L 92.09375 381.859375 L 92.09375 383.472656 L 91.285156 383.472656 L 91.285156 384.28125 L 90.480469 384.28125 L 90.480469 385.898438 L 75.933594 411.757812 C 66.234375 428.996094 60.847656 438.425781 59.769531 440.042969 L 58.15625 442.464844 L 58.15625 443.273438 L 57.347656 443.273438 L 57.347656 444.082031 L 56.539062 444.082031 L 56.539062 445.699219 L 55.730469 445.699219 L 55.730469 446.507812 L 54.921875 446.507812 L 54.921875 448.125 L 54.113281 448.125 L 54.113281 448.929688 L 50.074219 452.164062 L 45.226562 457.011719 L 44.417969 457.011719 L 44.417969 457.820312 L 43.609375 457.820312 L 43.609375 458.628906 L 42.800781 458.628906 L 42.800781 459.4375 L 41.992188 459.4375 L 41.992188 460.246094 L 41.183594 460.246094 L 40.375 461.054688 L 39.566406 461.859375 L 38.761719 461.859375 L 37.953125 462.667969 L 37.144531 462.667969 L 37.144531 461.054688 L 38.761719 461.054688 L 38.761719 459.4375 L 39.566406 458.628906 L 40.375 457.820312 L 40.375 457.011719 L 41.183594 457.011719 L 41.183594 456.203125 C 41.722656 456.203125 43.609375 453.78125 46.839844 448.929688 C 50.074219 443.542969 54.113281 436 58.960938 426.304688 L 66.234375 412.566406 L 67.851562 410.949219 L 67.851562 409.332031 L 68.660156 409.332031 L 68.660156 408.527344 L 69.46875 408.527344 L 69.46875 407.71875 C 69.46875 407.179688 73.238281 399.367188 80.78125 384.28125 C 88.324219 369.199219 92.902344 360.578125 94.519531 358.421875 C 96.675781 356.269531 98.558594 355.191406 100.175781 355.191406 C 102.332031 355.191406 104.214844 353.84375 105.832031 351.148438 C 107.449219 348.996094 109.875 345.492188 113.105469 340.644531 C 116.339844 335.796875 118.492188 332.832031 119.570312 331.753906 L 121.996094 330.949219 L 123.609375 330.949219 L 126.035156 331.753906 C 127.113281 332.832031 129.804688 336.066406 134.117188 341.453125 C 137.347656 346.839844 139.503906 350.34375 140.582031 351.957031 C 141.660156 353.035156 142.46875 353.574219 143.003906 353.574219 L 143.8125 353.574219 L 143.8125 354.382812 L 145.429688 356 L 145.429688 356.808594 L 148.664062 356.808594 L 148.664062 354.382812 L 154.320312 342.261719 C 158.089844 334.179688 161.054688 328.792969 163.207031 326.097656 C 165.902344 323.945312 168.597656 321.519531 171.289062 318.824219 C 174.523438 316.132812 178.832031 311.015625 184.21875 303.472656 C 189.605469 295.929688 192.839844 291.621094 193.917969 290.542969 C 195.53125 289.464844 197.6875 288.386719 200.382812 287.308594 C 203.074219 287.308594 206.308594 288.65625 210.078125 291.351562 C 213.3125 294.042969 217.082031 297.007812 221.390625 300.238281 C 224.625 304.011719 228.125 308.320312 231.898438 313.167969 C 235.667969 318.554688 239.441406 322.867188 243.210938 326.097656 C 247.519531 329.332031 253.984375 333.640625 262.605469 339.027344 C 271.226562 344.414062 277.421875 348.1875 281.191406 350.34375 C 284.425781 353.574219 286.308594 355.191406 286.847656 355.191406 C 287.386719 355.191406 287.65625 355.460938 287.65625 356 Z M 287.65625 356 "/></g><g style="fill:#000000;fill-opacity:1;"><g transform="translate(170.470029, 452.076676)"><path style="stroke:none" d="M 78.875 -21.609375 L 78.875 -71.078125 C 78.875 -74.679688 78.234375 -77.101562 76.953125 -78.34375 C 75.679688 -79.582031 73.320312 -80.242188 69.875 -80.328125 L 66.875 -80.328125 L 66.875 -82.484375 L 97.25 -82.484375 L 97.25 -80.328125 L 94.734375 -80.328125 C 91.523438 -80.328125 89.238281 -80.125 87.875 -79.71875 C 86.519531 -79.320312 85.582031 -78.378906 85.0625 -76.890625 C 84.539062 -75.410156 84.28125 -72.992188 84.28125 -69.640625 L 84.28125 0.953125 L 82.609375 0.953125 L 23.65625 -65.4375 L 23.65625 -13.921875 C 23.65625 -9.441406 24.554688 -6.359375 26.359375 -4.671875 C 28.160156 -2.992188 31.257812 -2.15625 35.65625 -2.15625 L 35.65625 0 L 5.890625 0 L 5.890625 -2.15625 L 6.609375 -2.15625 C 10.441406 -2.15625 13.359375 -2.851562 15.359375 -4.25 C 17.367188 -5.65625 18.375 -8.238281 18.375 -12 L 18.375 -70.71875 C 16.289062 -74.238281 13.925781 -76.71875 11.28125 -78.15625 C 8.644531 -79.601562 5.40625 -80.328125 1.5625 -80.328125 L 1.5625 -82.484375 L 25.578125 -82.484375 Z M 78.875 -21.609375 "/></g></g><g style="fill:#000000;fill-opacity:1;"><g transform="translate(269.278198, 452.076676)"><path style="stroke:none" d="M 22.09375 -15.84375 C 22.09375 -12.96875 22.972656 -10.609375 24.734375 -8.765625 C 26.492188 -6.921875 28.65625 -6 31.21875 -6 C 33.539062 -6 35.941406 -6.617188 38.421875 -7.859375 C 40.898438 -9.097656 43.257812 -10.921875 45.5 -13.328125 L 45.5 -46.578125 C 45.5 -51.222656 42.78125 -53.546875 37.34375 -53.546875 L 36.140625 -53.546875 L 36.140625 -55.703125 L 55.34375 -55.703125 L 55.34375 -12.96875 C 55.34375 -11.53125 55.765625 -10.066406 56.609375 -8.578125 C 57.453125 -7.097656 58.789062 -6.359375 60.625 -6.359375 C 61.664062 -6.359375 62.988281 -6.679688 64.59375 -7.328125 L 64.59375 -5.046875 L 47.78125 1.4375 L 45.5 1.4375 L 45.5 -10.328125 L 45.265625 -10.328125 C 38.773438 -2.316406 32.53125 1.6875 26.53125 1.6875 C 23.488281 1.6875 20.882812 0.90625 18.71875 -0.65625 C 16.5625 -2.21875 14.941406 -4.195312 13.859375 -6.59375 C 12.785156 -9 12.25 -11.441406 12.25 -13.921875 L 12.25 -45.625 C 12.25 -48.75 11.546875 -50.847656 10.140625 -51.921875 C 8.742188 -53.003906 6.566406 -53.546875 3.609375 -53.546875 L 2.15625 -53.546875 L 2.15625 -55.703125 L 22.09375 -55.703125 Z M 22.09375 -15.84375 "/></g></g><g style="fill:#000000;fill-opacity:1;"><g transform="translate(335.550507, 452.076676)"><path style="stroke:none" d="M 19.9375 -73.359375 L 21.84375 -73.359375 L 21.84375 -55.703125 L 34.453125 -55.703125 L 34.453125 -51.984375 L 21.84375 -51.984375 L 21.84375 -13.328125 C 21.84375 -11.242188 22.441406 -9.378906 23.640625 -7.734375 C 24.847656 -6.097656 26.53125 -5.28125 28.6875 -5.28125 C 30.132812 -5.28125 31.414062 -5.617188 32.53125 -6.296875 C 33.65625 -6.984375 34.859375 -8.164062 36.140625 -9.84375 L 38.546875 -9.84375 C 36.460938 -6 34.21875 -3.113281 31.8125 -1.1875 C 29.414062 0.726562 26.613281 1.6875 23.40625 1.6875 C 19.882812 1.6875 17.101562 0.382812 15.0625 -2.21875 C 13.019531 -4.820312 12 -8.363281 12 -12.84375 L 12 -51.984375 L 3.484375 -51.984375 L 3.484375 -54.390625 C 7.566406 -56.066406 11.007812 -58.523438 13.8125 -61.765625 C 16.613281 -65.015625 18.65625 -68.878906 19.9375 -73.359375 Z M 19.9375 -73.359375 "/></g></g><g style="fill:#000000;fill-opacity:1;"><g transform="translate(375.529993, 452.076676)"><path style="stroke:none" d="M 22.21875 -45.75 L 22.453125 -45.75 C 24.535156 -49.425781 26.796875 -52.222656 29.234375 -54.140625 C 31.671875 -56.066406 34.410156 -57.03125 37.453125 -57.03125 C 39.617188 -57.03125 41.378906 -56.367188 42.734375 -55.046875 C 44.097656 -53.722656 44.78125 -52.101562 44.78125 -50.1875 C 44.78125 -48.664062 44.238281 -47.382812 43.15625 -46.34375 C 42.082031 -45.300781 40.863281 -44.78125 39.5 -44.78125 C 38.375 -44.78125 37.453125 -45 36.734375 -45.4375 C 36.015625 -45.882812 35.296875 -46.46875 34.578125 -47.1875 C 34.421875 -47.257812 34.140625 -47.492188 33.734375 -47.890625 C 33.335938 -48.296875 32.914062 -48.597656 32.46875 -48.796875 C 32.03125 -49.003906 31.570312 -49.109375 31.09375 -49.109375 C 29.25 -49.109375 27.664062 -48.363281 26.34375 -46.875 C 25.03125 -45.394531 23.65625 -43.378906 22.21875 -40.828125 L 22.21875 -12.734375 C 22.21875 -9.609375 22.554688 -7.285156 23.234375 -5.765625 C 23.910156 -4.242188 24.96875 -3.257812 26.40625 -2.8125 C 27.851562 -2.375 29.976562 -2.15625 32.78125 -2.15625 L 32.78125 0 L 3.234375 0 L 3.234375 -2.15625 L 3.84375 -2.15625 C 6.800781 -2.15625 8.957031 -2.875 10.3125 -4.3125 C 11.675781 -5.757812 12.359375 -8.40625 12.359375 -12.25 L 12.359375 -39.625 C 12.359375 -43.382812 11.957031 -45.84375 11.15625 -47 C 10.363281 -48.164062 8.96875 -48.75 6.96875 -48.75 C 5.757812 -48.75 4.757812 -48.507812 3.96875 -48.03125 L 3.234375 -50.0625 L 20.046875 -57.03125 L 22.21875 -57.03125 Z M 22.21875 -45.75 "/></g></g><g style="fill:#000000;fill-opacity:1;"><g transform="translate(421.752517, 452.076676)"><path style="stroke:none" d="M 16.328125 -86.4375 C 18.085938 -86.4375 19.566406 -85.835938 20.765625 -84.640625 C 21.972656 -83.441406 22.578125 -82.003906 22.578125 -80.328125 C 22.578125 -78.566406 21.972656 -77.082031 20.765625 -75.875 C 19.566406 -74.675781 18.085938 -74.078125 16.328125 -74.078125 C 14.648438 -74.078125 13.207031 -74.675781 12 -75.875 C 10.800781 -77.082031 10.203125 -78.566406 10.203125 -80.328125 C 10.203125 -82.003906 10.800781 -83.441406 12 -84.640625 C 13.207031 -85.835938 14.648438 -86.4375 16.328125 -86.4375 Z M 21.609375 -12.484375 C 21.609375 -8.566406 22.25 -5.882812 23.53125 -4.4375 C 24.8125 -3 26.894531 -2.238281 29.78125 -2.15625 L 29.78125 0 L 2.765625 0 L 2.765625 -2.15625 C 6.046875 -2.15625 8.363281 -2.914062 9.71875 -4.4375 C 11.082031 -5.957031 11.765625 -8.722656 11.765625 -12.734375 L 11.765625 -41.78125 C 11.765625 -43.945312 11.285156 -45.707031 10.328125 -47.0625 C 9.367188 -48.425781 7.890625 -49.109375 5.890625 -49.109375 C 5.003906 -49.109375 4.203125 -48.90625 3.484375 -48.5 L 2.765625 -50.671875 L 19.453125 -57.03125 L 21.609375 -57.03125 Z M 21.609375 -12.484375 "/></g></g><g style="fill:#000000;fill-opacity:1;"><g transform="translate(464.496724, 452.076676)"><path style="stroke:none" d="M 76 -64.71875 L 73.71875 -64.71875 C 73.15625 -69.351562 71.453125 -72.789062 68.609375 -75.03125 C 65.773438 -77.28125 61.472656 -78.40625 55.703125 -78.40625 L 29.65625 -78.40625 L 29.65625 -45.859375 L 50.0625 -45.859375 C 54.382812 -45.859375 57.40625 -46.640625 59.125 -48.203125 C 60.851562 -49.765625 61.71875 -52.226562 61.71875 -55.59375 L 61.71875 -57.515625 L 63.875 -57.515625 L 63.875 -29.421875 L 61.71875 -29.421875 L 61.71875 -30.859375 C 61.71875 -34.378906 60.875 -36.957031 59.1875 -38.59375 C 57.507812 -40.238281 54.867188 -41.0625 51.265625 -41.0625 L 29.65625 -41.0625 L 29.65625 -12 C 29.65625 -8.164062 30.613281 -5.566406 32.53125 -4.203125 C 34.457031 -2.835938 37.460938 -2.15625 41.546875 -2.15625 L 41.546875 0 L 5.15625 0 L 5.15625 -2.15625 L 5.890625 -2.15625 C 9.484375 -2.15625 12.179688 -2.894531 13.984375 -4.375 C 15.785156 -5.863281 16.6875 -8.445312 16.6875 -12.125 L 16.6875 -70.953125 C 16.6875 -74.316406 15.765625 -76.71875 13.921875 -78.15625 C 12.085938 -79.601562 9.164062 -80.328125 5.15625 -80.328125 L 5.15625 -82.484375 L 75.15625 -82.484375 Z M 76 -64.71875 "/></g></g><g style="fill:#000000;fill-opacity:1;"><g transform="translate(537.372171, 452.076676)"><path style="stroke:none" d="M 28.6875 -57.03125 C 40.695312 -57.03125 46.703125 -52.226562 46.703125 -42.625 L 46.703125 -10.8125 C 46.703125 -8.644531 47.019531 -7.21875 47.65625 -6.53125 C 48.300781 -5.851562 49.144531 -5.515625 50.1875 -5.515625 C 51.382812 -5.515625 52.503906 -5.851562 53.546875 -6.53125 C 54.585938 -7.21875 56.109375 -8.523438 58.109375 -10.453125 L 58.109375 -7.4375 C 55.066406 -4 52.566406 -1.617188 50.609375 -0.296875 C 48.648438 1.023438 46.628906 1.6875 44.546875 1.6875 C 42.222656 1.6875 40.359375 0.867188 38.953125 -0.765625 C 37.554688 -2.410156 36.859375 -4.835938 36.859375 -8.046875 C 33.335938 -4.679688 30.078125 -2.21875 27.078125 -0.65625 C 24.078125 0.90625 20.8125 1.6875 17.28125 1.6875 C 13.757812 1.6875 10.796875 0.363281 8.390625 -2.28125 C 5.992188 -4.925781 4.796875 -8.128906 4.796875 -11.890625 C 4.796875 -18.285156 8.203125 -23.25 15.015625 -26.78125 C 21.492188 -30.21875 28.773438 -33.378906 36.859375 -36.265625 L 36.859375 -39.625 C 36.859375 -42.820312 36.632812 -45.378906 36.1875 -47.296875 C 35.75 -49.222656 34.75 -50.765625 33.1875 -51.921875 C 31.632812 -53.085938 29.253906 -53.671875 26.046875 -53.671875 C 22.929688 -53.671875 20.613281 -52.910156 19.09375 -51.390625 C 17.570312 -49.867188 16.8125 -47.988281 16.8125 -45.75 L 16.921875 -42.625 C 16.921875 -41.257812 16.476562 -40.132812 15.59375 -39.25 C 14.71875 -38.375 13.601562 -37.9375 12.25 -37.9375 C 10.726562 -37.9375 9.484375 -38.375 8.515625 -39.25 C 7.554688 -40.132812 7.078125 -41.378906 7.078125 -42.984375 C 7.078125 -46.984375 8.957031 -50.320312 12.71875 -53 C 16.488281 -55.6875 21.8125 -57.03125 28.6875 -57.03125 Z M 15.015625 -15.015625 C 15.015625 -12.285156 15.875 -9.957031 17.59375 -8.03125 C 19.3125 -6.113281 21.453125 -5.15625 24.015625 -5.15625 C 28.097656 -5.15625 32.378906 -7.160156 36.859375 -11.171875 L 36.859375 -33.015625 C 31.253906 -30.691406 26.929688 -28.671875 23.890625 -26.953125 C 20.847656 -25.234375 18.609375 -23.453125 17.171875 -21.609375 C 15.734375 -19.765625 15.015625 -17.566406 15.015625 -15.015625 Z M 23.421875 -64 L 21.5 -64 L 27.625 -84.28125 L 40.703125 -84.28125 Z M 23.421875 -64 "/></g></g><g style="fill:#000000;fill-opacity:1;"><g transform="translate(597.401442, 452.076676)"><path style="stroke:none" d="M 30.25 -57.03125 C 33.695312 -57.03125 36.898438 -56.425781 39.859375 -55.21875 C 42.816406 -54.019531 45.15625 -52.441406 46.875 -50.484375 C 48.601562 -48.523438 49.46875 -46.425781 49.46875 -44.1875 C 49.46875 -42.738281 48.925781 -41.535156 47.84375 -40.578125 C 46.757812 -39.617188 45.378906 -39.140625 43.703125 -39.140625 C 39.859375 -39.140625 37.738281 -41.300781 37.34375 -45.625 C 37.175781 -47.625 36.375 -49.421875 34.9375 -51.015625 C 33.5 -52.617188 31.257812 -53.421875 28.21875 -53.421875 C 23.488281 -53.421875 19.679688 -51.539062 16.796875 -47.78125 C 13.921875 -44.019531 12.484375 -39.019531 12.484375 -32.78125 C 12.484375 -25.332031 14.242188 -19.347656 17.765625 -14.828125 C 21.285156 -10.304688 25.96875 -8.046875 31.8125 -8.046875 C 36.132812 -8.046875 39.753906 -9.242188 42.671875 -11.640625 C 45.597656 -14.046875 47.703125 -17.367188 48.984375 -21.609375 L 50.90625 -20.765625 C 49.300781 -14.046875 46.359375 -8.625 42.078125 -4.5 C 37.796875 -0.375 32.9375 1.6875 27.5 1.6875 C 22.851562 1.6875 18.648438 0.445312 14.890625 -2.03125 C 11.128906 -4.519531 8.1875 -7.941406 6.0625 -12.296875 C 3.9375 -16.660156 2.875 -21.609375 2.875 -27.140625 C 2.875 -32.898438 4.035156 -38.039062 6.359375 -42.5625 C 8.679688 -47.082031 11.921875 -50.625 16.078125 -53.1875 C 20.242188 -55.75 24.96875 -57.03125 30.25 -57.03125 Z M 30.25 -57.03125 "/></g></g><g style="fill:#000000;fill-opacity:1;"><g transform="translate(649.987076, 452.076676)"><path style="stroke:none" d="M 16.328125 -86.4375 C 18.085938 -86.4375 19.566406 -85.835938 20.765625 -84.640625 C 21.972656 -83.441406 22.578125 -82.003906 22.578125 -80.328125 C 22.578125 -78.566406 21.972656 -77.082031 20.765625 -75.875 C 19.566406 -74.675781 18.085938 -74.078125 16.328125 -74.078125 C 14.648438 -74.078125 13.207031 -74.675781 12 -75.875 C 10.800781 -77.082031 10.203125 -78.566406 10.203125 -80.328125 C 10.203125 -82.003906 10.800781 -83.441406 12 -84.640625 C 13.207031 -85.835938 14.648438 -86.4375 16.328125 -86.4375 Z M 21.609375 -12.484375 C 21.609375 -8.566406 22.25 -5.882812 23.53125 -4.4375 C 24.8125 -3 26.894531 -2.238281 29.78125 -2.15625 L 29.78125 0 L 2.765625 0 L 2.765625 -2.15625 C 6.046875 -2.15625 8.363281 -2.914062 9.71875 -4.4375 C 11.082031 -5.957031 11.765625 -8.722656 11.765625 -12.734375 L 11.765625 -41.78125 C 11.765625 -43.945312 11.285156 -45.707031 10.328125 -47.0625 C 9.367188 -48.425781 7.890625 -49.109375 5.890625 -49.109375 C 5.003906 -49.109375 4.203125 -48.90625 3.484375 -48.5 L 2.765625 -50.671875 L 19.453125 -57.03125 L 21.609375 -57.03125 Z M 21.609375 -12.484375 "/></g></g><g style="fill:#000000;fill-opacity:1;"><g transform="translate(682.522936, 452.076676)"><path style="stroke:none" d="M 21.734375 -86.078125 L 21.734375 -12.609375 C 21.734375 -8.609375 22.3125 -5.863281 23.46875 -4.375 C 24.632812 -2.894531 26.738281 -2.15625 29.78125 -2.15625 L 29.78125 0 L 2.765625 0 L 2.765625 -2.15625 C 5.003906 -2.15625 6.765625 -2.394531 8.046875 -2.875 C 9.328125 -3.363281 10.285156 -4.367188 10.921875 -5.890625 C 11.566406 -7.410156 11.890625 -9.648438 11.890625 -12.609375 L 11.890625 -69.390625 C 11.890625 -74.753906 10.007812 -77.4375 6.25 -77.4375 C 5.207031 -77.4375 4.285156 -77.238281 3.484375 -76.84375 L 2.765625 -78.875 L 19.5625 -86.078125 Z M 21.734375 -86.078125 "/></g></g><g style="fill:#000000;fill-opacity:1;"><g transform="translate(719.753343, 369.402555)"><path style="stroke:none" d="M 11.609375 -9.609375 L 11.265625 -9.609375 C 11.097656 -10.960938 10.367188 -11.640625 9.078125 -11.640625 L 7 -11.640625 L 7 -1.703125 C 7 -1.160156 7.15625 -0.796875 7.46875 -0.609375 C 7.78125 -0.421875 8.226562 -0.328125 8.8125 -0.328125 L 8.8125 0 L 3.234375 0 L 3.234375 -0.328125 C 3.878906 -0.328125 4.34375 -0.4375 4.625 -0.65625 C 4.90625 -0.875 5.046875 -1.265625 5.046875 -1.828125 L 5.046875 -11.640625 L 2.84375 -11.640625 C 2.269531 -11.640625 1.789062 -11.472656 1.40625 -11.140625 C 1.03125 -10.804688 0.820312 -10.296875 0.78125 -9.609375 L 0.453125 -9.609375 L 0.546875 -12.4375 L 11.53125 -12.4375 Z M 11.609375 -9.609375 "/></g></g><g style="fill:#000000;fill-opacity:1;"><g transform="translate(731.825786, 369.402555)"><path style="stroke:none" d="M 9 -2.9375 L 13.359375 -12.4375 L 17.140625 -12.4375 L 17.140625 -12.109375 L 17.015625 -12.109375 C 16.429688 -12.109375 16 -12.003906 15.71875 -11.796875 C 15.445312 -11.585938 15.3125 -11.195312 15.3125 -10.625 L 15.3125 -1.796875 C 15.3125 -1.265625 15.441406 -0.882812 15.703125 -0.65625 C 15.972656 -0.4375 16.421875 -0.328125 17.046875 -0.328125 L 17.140625 -0.328125 L 17.140625 0 L 11.53125 0 L 11.53125 -0.328125 L 11.6875 -0.328125 C 12.25 -0.328125 12.664062 -0.4375 12.9375 -0.65625 C 13.21875 -0.882812 13.359375 -1.273438 13.359375 -1.828125 L 13.359375 -10.421875 L 13.3125 -10.421875 L 8.546875 0 L 8.21875 0 L 3.4375 -10.421875 L 3.40625 -10.421875 L 3.40625 -1.8125 C 3.40625 -1.226562 3.535156 -0.835938 3.796875 -0.640625 C 4.066406 -0.441406 4.515625 -0.335938 5.140625 -0.328125 L 5.140625 0 L 0.78125 0 L 0.78125 -0.328125 L 0.890625 -0.328125 C 1.460938 -0.328125 1.890625 -0.429688 2.171875 -0.640625 C 2.453125 -0.847656 2.59375 -1.242188 2.59375 -1.828125 L 2.59375 -10.3125 C 2.59375 -10.875 2.445312 -11.296875 2.15625 -11.578125 C 1.863281 -11.867188 1.40625 -12.046875 0.78125 -12.109375 L 0.78125 -12.4375 L 4.578125 -12.4375 Z M 9 -2.9375 "/></g></g></g></svg>